#!OML:ASF E:\Steps\Project 1\Capture day 1\Session 2\Subject.ASF
:FULLY-SPECIFIED
:DEGREES
171
root 16.7011 18.0994 20.9916 -153.752 -7.74186 172.711
lowerback -26.9196 -2.07167 -10.871
upperback 1.19453 0.584633 -0.700622
thorax 15.6441 -0.705966 5.3618
lowerneck -3.84319 1.01098 -1.55403
upperneck 22.5725 -1.33949 5.94365
head 7.58798 -0.869194 2.03571
rclavicle 3.14577e-014 8.74653e-015
rhumerus -38.0503 -17.9426 -74.7522
rradius 32.9479
rwrist -1.20531
rhand -5.70032 -52.8537
rfingers 7.12502
rthumb 20.1204 278.168
lclavicle 3.14577e-014 8.74653e-015
lhumerus -32.1023 2.46384 80.402
lradius 28.0814
lwrist -2.9553
lhand -21.0697 -13.3587
lfingers 7.12502
lthumb 5.30707 16.5549
rfemur -21.9944 5.0506 14.9794
rtibia 5.62634
rfoot -17.6086 -10.0258
rtoes -9.93572
lfemur -42.6422 -11.4736 -20.1613
ltibia 36.8118
lfoot -14.4306 3.24731
ltoes -32.3414
172
root 16.694 18.1014 20.9819 -153.801 -7.83833 172.708
lowerback -26.7947 -2.09871 -10.9645
upperback 1.20985 0.562359 -0.660401
thorax 15.6029 -0.721274 5.44964
lowerneck -3.74934 0.988691 -1.67175
upperneck 22.719 -1.43403 6.09381
head 7.6241 -0.9233 2.09846
rclavicle 2.16178e-014 -5.34731e-014
rhumerus -38.1194 -17.803 -74.7819
rradius 33.2308
rwrist -1.34787
rhand -5.25793 -53.7632
rfingers 7.12502
rthumb 20.5456 277.304
lclavicle 2.16178e-014 -5.34731e-014
lhumerus -32.2297 2.56487 80.3134
lradius 27.7984
lwrist -2.94896
lhand -21.2574 -13.2617
lfingers 7.12502
lthumb 5.12579 16.6563
rfemur -21.9398 5.39858 14.9095
rtibia 5.74691
rfoot -17.8391 -10.5043
rtoes -9.21335
lfemur -42.9057 -11.4585 -19.6159
ltibia 36.6953
lfoot -14.2698 3.23633
ltoes -31.2264
173
root 16.6884 18.1045 20.9714 -153.895 -8.00013 172.73
lowerback -26.6325 -2.14956 -10.9996
upperback 1.28571 0.498798 -0.647899
thorax 15.6243 -0.752505 5.46135
lowerneck -3.80397 1.00136 -1.57107
upperneck 22.6384 -1.38113 5.99342
head 7.6047 -0.890988 2.05203
rclavicle -1.55052e-014 7.7526e-015
rhumerus -38.0539 -17.6621 -74.9378
rradius 33.4336
rwrist -1.64769
rhand -5.67797 -54.2022
rfingers 7.12502
rthumb 20.1419 276.822
lclavicle -1.55052e-014 7.7526e-015
lhumerus -32.1903 2.77308 80.043
lradius 27.3633
lwrist -3.00897
lhand -21.0876 -13.9675
lfingers 7.12502
lthumb 5.28976 15.9464
rfemur -21.7381 5.49882 14.9463
rtibia 5.69442
rfoot -17.8909 -10.7445
rtoes -8.31758
lfemur -43.0394 -11.5795 -18.9675
ltibia 36.4516
lfoot -14.1832 3.25531
ltoes -30.7416
174
root 16.6844 18.106 20.9617 -153.927 -8.13542 172.742
lowerback -26.4819 -2.14927 -10.9496
upperback 1.31583 0.481381 -0.743536
thorax 15.5894 -0.750558 5.32313
lowerneck -3.82571 1.10026 -1.44966
upperneck 22.564 -1.24605 6.02781
head 7.57848 -0.809537 2.0526
rclavicle -3.57812e-015 -1.35174e-014
rhumerus -37.8916 -17.9417 -75.0568
rradius 33.2072
rwrist -1.69093
rhand -4.03095 -56.7743
rfingers 7.12502
rthumb 21.7242 274.425
lclavicle -3.57812e-015 -1.35174e-014
lhumerus -32.2026 2.85685 79.6701
lradius 27.0366
lwrist -3.13702
lhand -20.7212 -14.2244
lfingers 7.12502
lthumb 5.64353 15.6805
rfemur -21.4876 5.38534 14.9963
rtibia 5.39363
rfoot -17.7153 -10.692
rtoes -7.32184
lfemur -43.1863 -11.6118 -18.3371
ltibia 36.0624
lfoot -14.0515 3.17728
ltoes -29.4458
175
root 16.676 18.1053 20.9491 -153.837 -8.12432 172.726
lowerback -26.5907 -2.17418 -11.0905
upperback 1.35288 0.508684 -0.724862
thorax 15.6799 -0.756829 5.42949
lowerneck -3.90783 1.10854 -1.43436
upperneck 22.8024 -1.2763 6.01654
head 7.67368 -0.82874 2.04544
rclavicle 2.84262e-014 -2.97183e-014
rhumerus -37.7171 -18.0143 -75.005
rradius 33.056
rwrist -1.44235
rhand -5.68074 -52.5625
rfingers 7.12502
rthumb 20.1392 278.461
lclavicle 2.84262e-014 -2.97183e-014
lhumerus -32.2283 3.01376 79.5709
lradius 26.803
lwrist -3.26516
lhand -20.6308 -13.6552
lfingers 7.12502
lthumb 5.73084 16.2473
rfemur -21.4319 5.18473 14.9684
rtibia 5.16125
rfoot -17.6106 -10.5316
rtoes -7.39412
lfemur -43.4111 -11.6096 -17.7681
ltibia 35.5621
lfoot -13.8581 3.30408
ltoes -28.2361
